<?xml version="1.0" encoding="iso-8859-1"?>
<!-- Generator: Adobe Illustrator 22.0.1, SVG Export Plug-In . SVG Version: 6.00 Build 0)  -->
<svg version="1.1" id="Layer_1" xmlns="http://www.w3.org/2000/svg" xmlns:xlink="http://www.w3.org/1999/xlink" x="0px" y="0px"
	 viewBox="0 0 134 150" style="enable-background:new 0 0 134 150;" xml:space="preserve">
<path style="fill-rule:evenodd;clip-rule:evenodd;fill:#FFFFFF;" d="M1,150c0.576-12.849,15.764-29.23,35-41
	c8.906-5.449,11.819-6.26,14.084-15.42C45.892,90.127,39.755,84.053,37,76c-6.279-1.676-9.549-8.49-10-17
	c-0.524-9.896,0.375-17.03,7-18c-0.926-10.954-1.231-25.176,13.96-32.445c14.688-7.028,35.377,0.334,42.931-3.832
	C95.048,2.43,98.408,2.296,101.069,8c3.992,8.557,2.832,18.268-2.069,27c0.368,1.798,0.854,3.8,1,6c5.918,1.196,7.79,4.217,8,15
	c0.189,9.739-2.496,18.24-10.587,20.503C96.62,81.452,90.027,91.651,86,94c0,8.74,2.469,9.496,11.803,15.033
	C117.464,120.698,131.993,137.141,133,150c0.451,0,1,0,1,0V0H0v150C0,150,0.585,150,1,150z"/>
</svg>
