<?xml version="1.0" encoding="iso-8859-1"?>
<!-- Generator: Adobe Illustrator 22.0.1, SVG Export Plug-In . SVG Version: 6.00 Build 0)  -->
<svg version="1.1" id="Layer_1" xmlns="http://www.w3.org/2000/svg" xmlns:xlink="http://www.w3.org/1999/xlink" x="0px" y="0px"
	 viewBox="0 0 134 150" style="enable-background:new 0 0 134 150;" xml:space="preserve">
<path style="fill-rule:evenodd;clip-rule:evenodd;fill:#FFFFFF;" d="M1,150c2.047-12.337,13.224-25.532,32-38
	c9.324-6.192,15.349-6.818,17-17c-7.775,0.741-23.922-1.561-31.795-9.512C31.91,80.628,30.379,61.662,31.99,33.561
	C33.769,2.56,67.214-6.238,80.347,7.894c20.732-1.806,26.119,19.478,24.501,40.508c-1.496,19.448,0.146,30.658,10.991,37.207
	C111.566,92.196,93.201,95.106,86,95c0.819,10.186,5.991,10.903,15,17c19.092,12.921,30.174,25.622,32,38c0.451,0,1,0,1,0V0H0v150
	C0,150,0.585,150,1,150z"/>
</svg>
